Coordinates
version=1
nRows=16
nColumns=42
inDegrees=yes

Units are S.I. units (second, meters, Newtons, ...)
If the header above contains a line with 'inDegrees', this indicates whether rotational values are in degrees (yes) or radians (no).

endheader
time	pelvis_tilt	pelvis_list	pelvis_rotation	pelvis_tx	pelvis_ty	pelvis_tz	hip_flexion_r	hip_adduction_r	hip_rotation_r	knee_angle_r	knee_adduction_r	knee_angle_r_beta	ankle_angle_r	subtalar_angle_r	mtp_angle_r	hip_flexion_l	hip_adduction_l	hip_rotation_l	knee_angle_l	knee_adduction_l	knee_angle_l_beta	ankle_angle_l	subtalar_angle_l	mtp_angle_l	lumbar_extension	lumbar_bending	lumbar_rotation	arm_flex_r	arm_add_r	arm_rot_r	elbow_flex_r	pro_sup_r	wrist_flex_r	wrist_dev_r	arm_flex_l	arm_add_l	arm_rot_l	elbow_flex_l	pro_sup_l	wrist_flex_l	wrist_dev_l
     12.50000000	     -6.94979095	      0.76909506	     -0.26104611	      0.79420936	      0.97293260	      0.45760747	     34.07457263	     -3.31466972	     -6.20801790	     42.90873980	      6.25096954	      0.74889879	     -2.97808489	     -8.21720685	     -8.04013442	      5.82222028	     -0.50634630	    -10.08173032	     14.47353931	      6.43431604	      0.25261092	      7.48125335	      5.23018613	     -6.70974191	      0.00000000	      0.00000000	      0.00000000	      0.00000000	    -12.37281627	      0.00000000	     74.99825549	     90.00000001	      0.00000000	      0.00000000	      0.00000000	    -12.37281627	      0.00000000	     74.99825549	     90.00000001	      0.00000000	      0.00000000
     12.50500000	     -6.99919078	      0.45538043	     -0.13829007	      0.79412425	      0.97300127	      0.45760062	     33.87620096	     -3.07224779	     -6.51903609	     40.77778827	      6.25096954	      0.71170667	     -2.85871982	     -7.67175593	     -7.94653059	      5.36140618	     -0.87950584	     -9.91293607	     14.19035575	      6.43431604	      0.24766843	      7.44400567	      5.52304453	     -6.73968109	      0.00000000	      0.00000000	      0.00000000	      0.00000000	    -12.37675426	      0.00000000	     74.99826112	     90.00000001	      0.00000000	      0.00000000	      0.00000000	    -12.37675426	      0.00000000	     74.99826112	     90.00000001	      0.00000000	      0.00000000
     12.51000000	     -6.83883144	      0.50517969	     -0.02117705	      0.79351376	      0.97295694	      0.45789809	     33.65994500	     -3.16713332	     -6.69346676	     38.96671275	      6.25096954	      0.68009744	     -2.67399530	     -7.23359304	     -7.82486775	      4.77124148	     -0.86274766	     -9.85431865	     14.07703644	      6.43431604	      0.24569063	      7.55043626	      5.77049618	     -6.87333177	      0.00000000	      0.00000000	      0.00000000	      0.00000000	    -12.38377593	      0.00000000	     74.99827113	     90.00000001	      0.00000000	      0.00000000	      0.00000000	    -12.38377593	      0.00000000	     74.99827113	     90.00000001	      0.00000000	      0.00000000
     12.51500000	     -7.01391103	      0.63255656	     -0.01298462	      0.79309304	      0.97236455	      0.45834474	     33.80849100	     -3.26677688	     -6.66819540	     37.18191054	      6.25096954	      0.64894676	     -2.51981427	     -6.62920405	     -7.84127462	      4.51904622	     -0.76810923	     -9.88823702	     13.93552146	      6.43431604	      0.24322073	      7.58506827	      5.86947588	     -6.92079800	      0.00000000	      0.00000000	      0.00000000	      0.00000000	    -12.38756198	      0.00000000	     74.99827652	     90.00000001	      0.00000000	      0.00000000	      0.00000000	    -12.38756198	      0.00000000	     74.99827652	     90.00000001	      0.00000000	      0.00000000
     12.52000000	     -7.13538791	      0.81797130	      0.01722076	      0.79260827	      0.97175430	      0.45881398	     33.90736526	     -3.43752669	     -6.62939881	     35.44012223	      6.25096954	      0.61854682	     -2.36299342	     -5.98135326	     -7.92813874	      4.24827388	     -0.60859853	     -9.93751687	     13.86251282	      6.43431604	      0.24194649	      7.66044465	      5.96476682	     -7.03163824	      0.00000000	      0.00000000	      0.00000000	      0.00000000	    -12.39093216	      0.00000000	     74.99828131	     90.00000001	      0.00000000	      0.00000000	      0.00000000	    -12.39093216	      0.00000000	     74.99828131	     90.00000001	      0.00000000	      0.00000000
     12.52500000	     -7.26847104	      1.07149602	      0.03647749	      0.79203017	      0.97106461	      0.45931776	     34.03715329	     -3.66281198	     -6.54517624	     33.74560414	      6.25096954	      0.58897190	     -2.19375059	     -5.35837315	     -8.02679675	      3.99925264	     -0.37026072	     -9.93157685	     13.79851168	      6.43431604	      0.24082946	      7.69031726	      6.05076440	     -7.11225388	      0.00000000	      0.00000000	      0.00000000	      0.00000000	    -12.39334926	      0.00000000	     74.99828474	     90.00000001	      0.00000000	      0.00000000	      0.00000000	    -12.39334926	      0.00000000	     74.99828474	     90.00000001	      0.00000000	      0.00000000
     12.53000000	     -7.19654356	      1.18835226	      0.09785816	      0.79160705	      0.97066687	      0.45970242	     33.84346065	     -3.81254737	     -6.62888125	     31.93513594	      6.25096954	      0.55737327	     -2.12596672	     -4.59385653	     -8.64803178	      3.51412941	     -0.29180169	     -9.95915015	     13.72037510	      6.43431604	      0.23946572	      7.66009933	      6.21610164	     -7.75526706	      0.00000000	      0.00000000	      0.00000000	      0.00000000	    -12.41573360	      0.00000000	     74.99831640	     90.00000001	      0.00000000	      0.00000000	      0.00000000	    -12.41573360	      0.00000000	     74.99831640	     90.00000001	      0.00000000	      0.00000000
     12.53500000	     -7.42648179	      1.43179306	      0.08610530	      0.79113277	      0.96981005	      0.46034999	     34.02901906	     -3.99810220	     -6.49055195	     30.21811352	      6.25096954	      0.52740557	     -1.96146689	     -3.89643765	     -8.73957098	      3.38371434	     -0.07848886	     -9.97287566	     13.69693626	      6.43431604	      0.23905664	      7.70136545	      6.24217455	     -7.80808466	      0.00000000	      0.00000000	      0.00000000	      0.00000000	    -12.41880600	      0.00000000	     74.99832072	     90.00000001	      0.00000000	      0.00000000	      0.00000000	    -12.41880600	      0.00000000	     74.99832072	     90.00000001	      0.00000000	      0.00000000
     12.54000000	     -7.48148398	      1.60175848	      0.14190635	      0.79069186	      0.96914369	      0.46082341	     33.98567640	     -4.17835679	     -6.51729885	     28.51571177	      6.25096954	      0.49769306	     -1.73555597	     -3.13674389	     -8.89232361	      3.07042806	      0.05963335	     -9.98288397	     13.68594932	      6.43431604	      0.23886488	      7.75284155	      6.35709398	     -8.02780150	      0.00000000	      0.00000000	      0.00000000	      0.00000000	    -12.42600034	      0.00000000	     74.99833082	     90.00000001	      0.00000000	      0.00000000	      0.00000000	    -12.42600034	      0.00000000	     74.99833082	     90.00000001	      0.00000000	      0.00000000
     12.54500000	     -7.67410472	      1.95679302	      0.12352650	      0.78999213	      0.96820731	      0.46151541	     34.16267876	     -4.45404809	     -6.20658002	     26.93163239	      6.25096954	      0.47004566	     -1.53977968	     -2.62514781	     -8.95135155	      2.95148415	      0.39971312	     -9.96298856	     13.73943249	      6.43431604	      0.23979833	      7.81792399	      6.39487577	     -8.09186099	      0.00000000	      0.00000000	      0.00000000	      0.00000000	    -12.42790740	      0.00000000	     74.99833348	     90.00000001	      0.00000000	      0.00000000	      0.00000000	    -12.42790740	      0.00000000	     74.99833348	     90.00000001	      0.00000000	      0.00000000
     12.55000000	     -7.84387605	      2.03150132	      0.12593594	      0.78978747	      0.96745597	      0.46200710	     34.17117460	     -4.49873894	     -6.21539687	     25.20165810	      6.25096954	      0.43985191	     -1.42774051	     -2.02640788	     -9.04295302	      2.75971896	      0.43076481	    -10.00560042	     13.76054793	      6.43431604	      0.24016687	      7.86737819	      6.45500967	     -8.28535901	      0.00000000	      0.00000000	      0.00000000	      0.00000000	    -12.43207802	      0.00000000	     74.99833933	     90.00000001	      0.00000000	      0.00000000	      0.00000000	    -12.43207802	      0.00000000	     74.99833933	     90.00000001	      0.00000000	      0.00000000
     12.55500000	     -7.99025782	      2.14998636	      0.15173381	      0.78965195	      0.96670392	      0.46271803	     34.13053493	     -4.58275392	     -6.17201542	     23.51007948	      6.25096954	      0.41032829	     -1.27043314	     -1.56561020	     -9.11018232	      2.56275202	      0.48773419	    -10.06248228	     13.82480486	      6.43431604	      0.24128836	      7.92790347	      6.60247247	     -8.48716659	      0.00000000	      0.00000000	      0.00000000	      0.00000000	    -12.43624154	      0.00000000	     74.99834515	     90.00000001	      0.00000000	      0.00000000	      0.00000000	    -12.43624154	      0.00000000	     74.99834515	     90.00000001	      0.00000000	      0.00000000
     12.56000000	     -8.13745730	      2.46450279	      0.14387710	      0.78895777	      0.96577777	      0.46341405	     34.22720345	     -4.82068190	     -5.87917396	     22.04867017	      6.25096954	      0.38482189	     -1.01479464	     -1.16869693	     -9.18227246	      2.43673382	      0.78170732	    -10.02136132	     13.96256119	      6.43431604	      0.24369266	      7.98666051	      6.63913032	     -8.59758562	      0.00000000	      0.00000000	      0.00000000	      0.00000000	    -12.43778993	      0.00000000	     74.99834731	     90.00000001	      0.00000000	      0.00000000	      0.00000000	    -12.43778993	      0.00000000	     74.99834731	     90.00000001	      0.00000000	      0.00000000
     12.56500000	     -8.32857042	      2.59645271	      0.13602093	      0.78858176	      0.96492791	      0.46397295	     34.27095164	     -4.90493124	     -5.73431199	     20.49708704	      6.25096954	      0.35774166	     -0.87877831	     -0.77688759	     -9.21817660	      2.33283119	      0.87756977	    -10.03865371	     14.08248412	      6.43431604	      0.24578571	      8.04073216	      6.64340629	     -8.75861697	      0.00000000	      0.00000000	      0.00000000	      0.00000000	    -12.44003039	      0.00000000	     74.99835044	     90.00000001	      0.00000000	      0.00000000	      0.00000000	    -12.44003039	      0.00000000	     74.99835044	     90.00000001	      0.00000000	      0.00000000
     12.57000000	     -8.48678433	      2.62992999	      0.14603309	      0.78830102	      0.96413835	      0.46455950	     34.22812965	     -4.90031583	     -5.62128571	     18.93975215	      6.25096954	      0.33056103	     -0.80570265	     -0.51249007	     -9.23145416	      2.20646028	      0.86157768	    -10.05074793	     14.24408490	      6.43431604	      0.24860618	      8.10176605	      6.68080485	     -9.03020807	      0.00000000	      0.00000000	      0.00000000	      0.00000000	    -12.44359925	      0.00000000	     74.99835542	     90.00000001	      0.00000000	      0.00000000	      0.00000000	    -12.44359925	      0.00000000	     74.99835542	     90.00000001	      0.00000000	      0.00000000
     12.57500000	     -8.52564936	      2.67670330	      0.12824239	      0.78792051	      0.96350800	      0.46536374	     34.05769932	     -4.85309761	     -5.38941994	     17.44324908	      6.25096954	      0.30444213	     -0.83131512	     -0.62941163	     -9.36982614	      1.98915233	      0.82861937	    -10.14970420	     14.46598233	      6.43431604	      0.25247902	      8.03583529	      6.89687706	     -9.95951398	      0.00000000	      0.00000000	      0.00000000	      0.00000000	    -12.46020521	      0.00000000	     74.99837852	     90.00000001	      0.00000000	      0.00000000	      0.00000000	    -12.46020521	      0.00000000	     74.99837852	     90.00000001	      0.00000000	      0.00000000
